<svg width="363" height="143" viewBox="0 0 363 143" fill="none" xmlns="http://www.w3.org/2000/svg">
<g clip-path="url(#clip0_5204_35)">
<path d="M95.6063 127.597H94.1004V130.548H92.564V122.699H95.6063C97.2188 122.699 98.1924 123.809 98.1924 125.148C98.1924 126.486 97.2188 127.597 95.6063 127.597ZM95.5303 124.068H94.1004V126.213H95.5303C96.23 126.213 96.6712 125.787 96.6712 125.148C96.6712 124.509 96.23 124.068 95.5303 124.068Z" fill="black"/>
<path d="M104.216 130.548L102.68 127.414H101.584V130.548H100.048V122.699H103.121C104.718 122.699 105.661 123.794 105.661 125.102C105.661 126.197 104.992 126.882 104.231 127.156L105.981 130.533H104.201L104.216 130.548ZM103.014 124.068H101.569V126.137H103.014C103.684 126.137 104.125 125.711 104.125 125.102C104.125 124.494 103.684 124.068 103.014 124.068Z" fill="black"/>
<path d="M107.806 130.548V122.699H112.978V124.068H109.343V125.908H112.431V127.277H109.343V129.179H112.978V130.548H107.806Z" fill="black"/>
<path d="M117.192 130.609C116.005 130.609 115.093 130.35 114.332 129.574L115.321 128.586C115.823 129.088 116.492 129.24 117.222 129.24C118.12 129.24 118.607 128.905 118.607 128.266C118.607 127.992 118.53 127.764 118.363 127.612C118.211 127.475 118.028 127.399 117.663 127.338L116.72 127.201C116.051 127.11 115.549 126.897 115.199 126.547C114.819 126.167 114.636 125.665 114.636 125.011C114.636 123.611 115.671 122.638 117.374 122.638C118.454 122.638 119.23 122.896 119.915 123.55L118.941 124.509C118.439 124.037 117.846 123.976 117.329 123.976C116.507 123.976 116.112 124.433 116.112 124.965C116.112 125.163 116.173 125.376 116.34 125.528C116.492 125.665 116.751 125.787 117.07 125.832L117.998 125.969C118.713 126.076 119.169 126.273 119.504 126.578C119.93 126.973 120.113 127.551 120.113 128.236C120.113 129.757 118.85 130.609 117.207 130.609H117.192Z" fill="black"/>
<path d="M122.09 130.548V122.699H127.262V124.068H123.626V125.908H126.714V127.277H123.626V129.179H127.262V130.548H122.09Z" fill="black"/>
<path d="M133.955 130.548L130.852 125.741V130.548H129.316V122.699H130.685L133.788 127.506V122.699H135.324V130.548H133.955Z" fill="black"/>
<path d="M140.694 124.068V130.548H139.158V124.068H137.104V122.699H142.733V124.068H140.679H140.694Z" fill="black"/>
<path d="M144.543 130.548V122.699H149.715V124.068H146.08V125.908H149.168V127.277H146.08V129.179H149.715V130.548H144.543Z" fill="black"/>
<path d="M156.667 129.803C156.15 130.32 155.404 130.548 154.598 130.548H151.769V122.699H154.598C155.419 122.699 156.15 122.927 156.667 123.444C157.549 124.326 157.458 125.406 157.458 126.578C157.458 127.749 157.549 128.905 156.667 129.787V129.803ZM155.602 124.555C155.343 124.235 154.978 124.068 154.461 124.068H153.305V129.179H154.461C154.993 129.179 155.343 129.012 155.602 128.692C155.891 128.342 155.937 127.779 155.937 126.593C155.937 125.406 155.891 124.904 155.602 124.555Z" fill="black"/>
<path d="M165.976 130.548H162.69V122.699H165.839C167.376 122.699 168.258 123.551 168.258 124.904C168.258 125.772 167.68 126.334 167.284 126.517C167.756 126.73 168.364 127.232 168.364 128.281C168.364 129.742 167.36 130.533 165.961 130.533L165.976 130.548ZM165.718 124.068H164.227V125.878H165.718C166.372 125.878 166.737 125.513 166.737 124.981C166.737 124.448 166.372 124.083 165.718 124.083V124.068ZM165.824 127.247H164.227V129.179H165.824C166.524 129.179 166.843 128.738 166.843 128.205C166.843 127.673 166.509 127.247 165.824 127.247Z" fill="black"/>
<path d="M173.491 127.323V130.533H171.97V127.323L169.612 122.699H171.27L172.73 125.863L174.175 122.699H175.833L173.476 127.323H173.491Z" fill="black"/>
<path d="M191.578 140.04C191.578 141.257 191.867 142.17 192.826 142.17C193.221 142.17 193.571 141.941 193.738 141.652V140.831L193.084 140.77V140.192H195.427V140.77L194.94 140.831V142.748H194.332C194.271 142.596 194.21 142.459 194.058 142.459C193.799 142.459 193.449 142.824 192.628 142.824C191.152 142.824 190.194 142.002 190.194 140.086C190.194 138.169 191.335 137.287 192.795 137.287C193.495 137.287 193.784 137.576 194.027 137.576C194.149 137.576 194.195 137.484 194.24 137.347H194.773L194.834 139.127H194.256C194.027 138.23 193.647 137.88 192.902 137.88C191.974 137.88 191.563 138.671 191.563 140.04H191.578Z" fill="black"/>
<path d="M197.693 138.808C198.667 138.808 199.351 139.341 199.351 140.497C199.351 140.603 199.351 140.801 199.336 140.907H197.039C197.039 141.622 197.206 142.17 197.891 142.17C198.362 142.17 198.591 141.896 198.773 141.485L199.321 141.683C199.093 142.398 198.53 142.809 197.708 142.809C196.461 142.809 195.807 142.033 195.807 140.877C195.807 139.553 196.613 138.808 197.708 138.808H197.693ZM198.134 140.405V140.268C198.134 139.569 198.028 139.264 197.632 139.264C197.176 139.264 197.039 139.766 197.024 140.405H198.119H198.134Z" fill="black"/>
<path d="M201.313 138.854L201.374 139.584H201.42C201.617 139.188 201.937 138.808 202.713 138.808C203.488 138.808 203.899 139.158 203.899 140.055V142.139L204.386 142.2V142.733H202.363V142.2L202.728 142.139V140.208C202.728 139.797 202.667 139.523 202.256 139.523C201.845 139.523 201.526 139.766 201.526 140.39V142.139L201.922 142.2V142.733H199.868V142.2L200.339 142.139V139.493L199.868 139.432V138.899L201.343 138.839L201.313 138.854Z" fill="black"/>
<path d="M206.622 138.808C207.596 138.808 208.28 139.341 208.28 140.497C208.28 140.603 208.28 140.801 208.265 140.907H205.968C205.968 141.622 206.136 142.17 206.82 142.17C207.292 142.17 207.52 141.896 207.702 141.485L208.25 141.683C208.022 142.398 207.459 142.809 206.638 142.809C205.39 142.809 204.736 142.033 204.736 140.877C204.736 139.553 205.542 138.808 206.638 138.808H206.622ZM207.079 140.405V140.268C207.079 139.569 206.972 139.264 206.577 139.264C206.12 139.264 205.983 139.766 205.968 140.405H207.063H207.079Z" fill="black"/>
<path d="M211.931 139.675H213.802V138.002L213.3 137.941V137.348H215.566V137.926L215.064 137.987V142.063L215.566 142.124V142.702H213.3V142.124L213.802 142.063V140.329H211.931V142.063L212.433 142.124V142.702H210.166V142.124L210.668 142.063V137.987L210.166 137.926V137.333H212.433V137.911L211.931 137.971V139.645V139.675Z" fill="black"/>
<path d="M218.199 140.725V140.177C218.199 139.584 218.062 139.249 217.514 139.249C217.286 139.249 217.073 139.31 217.073 139.508C217.073 139.538 217.073 139.584 217.073 139.614H217.362C217.393 139.721 217.408 139.827 217.408 139.918C217.408 140.223 217.21 140.451 216.815 140.451C216.419 140.451 216.221 140.177 216.221 139.842C216.221 139.234 216.769 138.823 217.758 138.823C218.747 138.823 219.355 139.173 219.355 140.268V141.85C219.355 142.124 219.355 142.261 219.538 142.261C219.598 142.261 219.674 142.261 219.796 142.2L219.903 142.596C219.75 142.702 219.416 142.839 219.036 142.839C218.549 142.839 218.336 142.626 218.245 142.261C218.108 142.52 217.819 142.839 217.164 142.839C216.556 142.839 216.039 142.565 216.039 141.835C216.039 140.999 216.617 140.755 217.636 140.755H218.184L218.199 140.725ZM218.199 141.592V141.12H217.895C217.408 141.12 217.271 141.318 217.271 141.713C217.271 142.079 217.393 142.231 217.697 142.231C217.956 142.231 218.199 142.063 218.199 141.592Z" fill="black"/>
<path d="M222.382 140.725V140.177C222.382 139.584 222.245 139.249 221.698 139.249C221.47 139.249 221.257 139.31 221.257 139.508C221.257 139.538 221.257 139.584 221.257 139.614H221.546C221.576 139.721 221.591 139.827 221.591 139.918C221.591 140.223 221.393 140.451 220.998 140.451C220.602 140.451 220.405 140.177 220.405 139.842C220.405 139.234 220.952 138.823 221.941 138.823C222.93 138.823 223.538 139.173 223.538 140.268V141.85C223.538 142.124 223.538 142.261 223.721 142.261C223.782 142.261 223.858 142.261 223.979 142.2L224.086 142.596C223.934 142.702 223.599 142.839 223.219 142.839C222.732 142.839 222.519 142.626 222.428 142.261C222.291 142.52 222.002 142.839 221.348 142.839C220.739 142.839 220.222 142.565 220.222 141.835C220.222 140.999 220.8 140.755 221.819 140.755H222.367L222.382 140.725ZM222.382 141.592V141.12H222.078C221.591 141.12 221.454 141.318 221.454 141.713C221.454 142.079 221.576 142.231 221.88 142.231C222.139 142.231 222.382 142.063 222.382 141.592Z" fill="black"/>
<path d="M224.436 141.485H224.907C225.029 141.957 225.425 142.276 226.018 142.276C226.444 142.276 226.657 142.14 226.657 141.851C226.657 141.501 226.307 141.44 225.881 141.364C225.242 141.242 224.451 141.12 224.451 140.101C224.451 139.31 225.06 138.793 225.881 138.793C226.231 138.793 226.444 138.899 226.596 138.976C226.657 139.006 226.702 139.021 226.763 139.021C226.87 139.021 226.885 138.96 226.915 138.839H227.326V140.025H226.855C226.657 139.538 226.383 139.295 225.896 139.295C225.592 139.295 225.318 139.417 225.318 139.69C225.318 140.01 225.653 140.071 226.064 140.147C226.702 140.269 227.539 140.421 227.539 141.455C227.539 142.307 226.976 142.794 226.124 142.794C225.653 142.794 225.379 142.657 225.181 142.55C225.12 142.52 225.075 142.505 225.029 142.505C224.938 142.505 224.907 142.566 224.862 142.733H224.421V141.455L224.436 141.485Z" fill="black"/>
<path d="M233.304 137.363L233.38 138.747H233.168C232.97 137.819 232.696 137.637 231.89 137.637H230.977V139.873H231.449C232.118 139.873 232.27 139.63 232.392 138.945H232.574V141.212H232.376C232.255 140.39 232.118 140.192 231.357 140.192H230.977V142.428L232.042 142.489V142.718H229.699V142.489L230.353 142.428V137.637L229.699 137.576V137.333H233.32L233.304 137.363Z" fill="black"/>
<path d="M235.464 138.854C236.559 138.854 237.122 139.66 237.122 140.816C237.122 141.972 236.468 142.809 235.418 142.809C234.369 142.809 233.76 142.018 233.76 140.846C233.76 139.675 234.445 138.854 235.464 138.854ZM235.434 139.188C234.582 139.188 234.399 139.994 234.399 140.785C234.399 141.576 234.597 142.444 235.464 142.444C236.331 142.444 236.498 141.637 236.498 140.831C236.498 140.025 236.316 139.173 235.434 139.173V139.188Z" fill="black"/>
<path d="M238.689 141.546C238.689 142.093 238.856 142.367 239.464 142.367C240.073 142.367 240.575 141.987 240.575 141.287V139.249L240.012 139.188V138.929L241.122 138.899V142.398L241.624 142.459V142.717H240.666L240.605 142.078C240.362 142.443 239.921 142.793 239.282 142.793C238.46 142.793 238.126 142.367 238.126 141.531V139.234L237.593 139.173V138.914L238.673 138.884V141.531L238.689 141.546Z" fill="black"/>
<path d="M243.222 138.884L243.252 139.599C243.481 139.234 243.922 138.838 244.606 138.838C245.443 138.838 245.747 139.264 245.747 140.162V142.398L246.264 142.459V142.717H244.637V142.459L245.2 142.398V140.147C245.2 139.538 245.047 139.249 244.409 139.249C243.815 139.249 243.283 139.66 243.283 140.268V142.398L243.846 142.459V142.717H242.218V142.459L242.72 142.398V139.219L242.218 139.158V138.914L243.207 138.854L243.222 138.884Z" fill="black"/>
<path d="M249.52 139.325V137.317L248.881 137.256V137.013L250.068 136.967V142.398L250.63 142.459V142.717H249.55L249.505 142.124C249.307 142.459 248.942 142.809 248.257 142.809C247.269 142.809 246.797 142.033 246.797 140.907C246.797 139.599 247.451 138.854 248.41 138.854C248.836 138.854 249.201 138.99 249.505 139.34L249.52 139.325ZM249.52 141.379V140.192C249.52 139.477 249.018 139.219 248.531 139.219C247.71 139.219 247.436 139.858 247.436 140.831C247.436 141.561 247.603 142.398 248.44 142.398C249.003 142.398 249.52 141.972 249.52 141.394V141.379Z" fill="black"/>
<path d="M253.337 140.724V140.222C253.337 139.523 253.17 139.158 252.546 139.158C252.318 139.158 251.832 139.203 251.832 139.507C251.832 139.538 251.832 139.568 251.832 139.614H252.075C252.105 139.705 252.121 139.812 252.121 139.888C252.121 140.131 251.938 140.253 251.74 140.253C251.512 140.253 251.33 140.116 251.33 139.812C251.33 139.279 251.847 138.884 252.623 138.884C253.535 138.884 253.9 139.295 253.9 140.329V142.109C253.9 142.459 253.961 142.55 254.159 142.55C254.25 142.55 254.326 142.535 254.418 142.504L254.478 142.748C254.341 142.808 254.205 142.839 254.037 142.839C253.672 142.839 253.429 142.702 253.383 142.291C253.109 142.687 252.668 142.839 252.257 142.839C251.664 142.839 251.193 142.58 251.193 141.881C251.193 141.044 251.908 140.755 252.836 140.755H253.353L253.337 140.724ZM253.337 141.607V141.013H252.82C252.075 141.013 251.801 141.333 251.801 141.759C251.801 142.185 251.999 142.428 252.455 142.428C252.881 142.428 253.337 142.154 253.337 141.591V141.607Z" fill="black"/>
<path d="M255.164 139.249H254.586V138.93H255.164V137.926L255.635 137.773H255.727V138.93H256.563V139.249H255.727V141.82C255.727 142.261 255.848 142.428 256.153 142.428C256.442 142.428 256.578 142.322 256.715 141.881L256.974 141.957C256.822 142.565 256.518 142.793 256.061 142.793C255.468 142.793 255.179 142.489 255.179 141.941V139.249H255.164Z" fill="black"/>
<path d="M258.556 138.899V142.413L259.134 142.474V142.733H257.415V142.474L257.993 142.413V139.234L257.415 139.173V138.914L258.556 138.869V138.899ZM258.191 137.18C258.404 137.18 258.586 137.272 258.586 137.576C258.586 137.834 258.434 137.956 258.206 137.956C257.932 137.956 257.811 137.804 257.811 137.576C257.811 137.332 257.932 137.165 258.191 137.165V137.18Z" fill="black"/>
<path d="M261.4 138.854C262.496 138.854 263.059 139.66 263.059 140.816C263.059 141.972 262.404 142.809 261.355 142.809C260.305 142.809 259.697 142.018 259.697 140.846C259.697 139.675 260.381 138.854 261.4 138.854ZM261.355 139.188C260.503 139.188 260.32 139.994 260.32 140.785C260.32 141.576 260.518 142.444 261.385 142.444C262.252 142.444 262.42 141.637 262.42 140.831C262.42 140.025 262.237 139.173 261.355 139.173V139.188Z" fill="black"/>
<path d="M264.716 138.884L264.747 139.599C264.975 139.234 265.416 138.838 266.101 138.838C266.937 138.838 267.242 139.264 267.242 140.162V142.398L267.759 142.459V142.717H266.131V142.459L266.694 142.398V140.147C266.694 139.538 266.542 139.249 265.903 139.249C265.31 139.249 264.777 139.66 264.777 140.268V142.398L265.34 142.459V142.717H263.712V142.459L264.214 142.398V139.219L263.712 139.158V138.914L264.701 138.854L264.716 138.884Z" fill="black"/>
<path d="M209.315 112.75L202.987 123.703L190.179 123.688L187.851 127.719L200.66 127.734L197.998 132.359H202.652L213.97 112.75H209.315Z" fill="black"/>
<path d="M218.7 112.75L212.372 123.703L208.965 123.688L206.637 127.719L210.06 127.734L207.383 132.359H212.037L223.355 112.75H218.7Z" fill="black"/>
<path d="M225.576 112.75L214.258 132.359H218.898L230.216 112.75H225.576Z" fill="black"/>
<path d="M239.054 112.75L230.87 126.928V113.861L226.945 120.585V123.703L225.135 123.688L222.808 127.719L226.945 127.734V132.359H232.391L243.709 112.75H239.054Z" fill="black"/>
<path d="M255.239 116.919H267.986L270.42 112.75H253.444C252.638 112.75 251.877 113.176 251.482 113.876L246.888 121.741C246.203 122.897 247.04 124.357 248.394 124.357H254.493L252.44 127.78C252.242 128.114 251.892 128.312 251.512 128.312H244.499V113.907L240.575 120.63V123.657V123.703H238.764L236.437 127.719H240.575V132.359H243.571H253.322C254.128 132.359 254.889 131.933 255.284 131.233L260.137 122.912C260.806 121.756 259.985 120.311 258.646 120.311H252.744L254.463 117.375C254.63 117.101 254.919 116.919 255.254 116.919H255.239Z" fill="black"/>
<path d="M90.343 14.2078C90.343 17.813 89.0196 21.829 86.3575 26.2404C78.7364 39.1096 67.3275 48.5713 52.1461 54.6256C66.5365 62.4597 64.8632 82.7523 64.5742 84.7907L43.4145 86.5248C43.4145 81.1855 43.6884 65.9889 30.9865 63.053L20.3078 89.0956L0 91.347C0 91.347 28.9329 28.1875 33.7246 18.3759C31.1386 18.6193 25.6015 19.3799 23.0763 19.9731L30.1955 2.63164C38.2882 0.867074 48.2519 0 60.1019 0C80.2576 0 90.3278 4.74609 90.3278 14.2078H90.343ZM67.3732 23.1524C67.3732 19.3494 63.8136 17.4632 56.6792 17.4632C55.9643 17.4632 51.7506 17.7826 51.7506 17.7826L40.0527 42.8669C45.3921 42.2128 50.5489 40.5091 55.5079 37.7253C61.3645 34.6069 65.1066 30.8496 66.7038 26.4229C67.1298 25.3125 67.3579 24.2172 67.3579 23.1372L67.3732 23.1524Z" fill="black"/>
<path d="M355.516 21.3272H336.471C331.101 32.7817 313.212 79.1169 307.705 90.2976C307.705 90.2976 302.533 89.3393 298.35 88.9438C294.167 88.5483 290.151 88.3657 290.151 88.3657L318.338 21.3272H298.943L305.773 4.80713L362.985 5.05052L355.501 21.3272H355.516Z" fill="black"/>
<path d="M165.748 49.9101C172.609 45.4379 175.682 40.494 178.131 34.5157L178.161 34.4397C179.378 30.6976 179.059 27.3662 177.203 24.8106C174.556 21.1597 169.064 21.175 161.352 21.175L92.351 21.1445L86.8595 35.2611L91.134 35.4437L72.3018 84.365C95.5607 82.9198 108.962 82.8438 108.962 82.8438L116.173 66.7192C116.173 66.7192 99.9417 67.7384 94.6936 68.21C95.5607 65.7457 97.2796 61.3342 98.1467 59.4023C101.478 58.9916 111.077 58.6722 111.077 58.6722L118.044 43.5668L104.11 43.5972C104.201 43.3234 107.304 34.7896 107.304 34.7896L136.085 34.6831C130.807 46.3201 114.18 82.357 114.18 82.357C120.356 83.1328 141.394 85.445 154.856 78.265C161.55 74.7055 166.098 69.9594 168.395 64.1941C169.293 61.9579 169.749 59.8891 169.749 58.0637C169.749 54.8692 168.41 52.1311 165.779 49.8949L165.748 49.9101ZM162.265 36.2803C162.265 36.5846 162.204 36.8584 162.052 37.2082C160.485 41.4828 155.161 44.1601 146.231 45.164L151.662 33.9681C152.59 33.8921 154.02 33.7704 154.628 33.7704C157.488 33.7704 162.265 34.0898 162.265 36.2803ZM147.098 67.6319C143.843 68.9858 140.512 69.6703 137.196 69.6703C136.907 69.6703 136.465 69.6703 135.887 69.6399C135.629 69.6399 135.355 69.6247 135.035 69.6095L140.086 58.1093C142.322 57.8811 143.904 57.7595 144.801 57.7595C150.186 57.7595 152.925 58.9916 152.925 61.4103C152.925 63.829 151.023 65.9739 147.114 67.6319H147.098Z" fill="black"/>
<path d="M235.951 21.2053H219.385L205.908 53.9411C204.478 57.4703 202.439 60.5583 199.884 63.0986C196.902 66.0041 193.753 67.4796 190.513 67.4796C188.825 67.4796 186.893 66.9624 186.893 62.9161C186.893 60.2084 188.125 55.5992 190.529 49.2255L191.198 47.5826C193.951 40.8894 202.957 21.1901 202.957 21.1901H186.619C186.619 21.1901 182.436 30.1042 181.949 31.2299C174.358 47.902 170.51 60.4061 170.51 68.4228C170.51 77.3673 174.845 81.8092 184.55 82.8284C185.448 82.9196 186.345 82.9653 187.228 82.9653C205.923 82.9653 216.434 68.2707 222.458 53.8651C225.561 46.4569 235.951 21.1597 235.951 21.1597V21.2053Z" fill="black"/>
<path d="M244.028 70.3241C247.04 62.2162 255.878 39.5354 258.388 33.9526H267.089L272.703 21.3572L239.982 21.2051L234.019 34.5307C234.019 34.5307 243.45 34.2416 243.754 34.2264L228.406 69.1528L219.142 69.2441L213.255 82.5545C213.255 82.5545 248.622 84.5624 248.759 84.5776L253.201 71.0695L244.028 70.2937V70.3241Z" fill="black"/>
<path d="M295.095 21.1748L277.631 21.0835L253.384 84.9885C253.566 84.9885 269.022 85.8556 284.842 87.6962L290.196 74.7357C284.599 73.0016 276.643 72.7125 273.661 72.4387C274.954 69.5028 295.11 21.1748 295.11 21.1748H295.095Z" fill="black"/>
<path d="M312.406 86.9354V86.1596L316.026 86.0684V86.8442L314.688 86.8746L314.779 90.5711L313.851 90.6015L313.76 86.905L312.406 86.9354Z" fill="black"/>
<path d="M316.62 86.0533L317.776 86.0229L319.069 89.0044H319.114L320.255 85.9621L321.411 85.9316L321.518 90.4039L320.605 90.4343L320.529 87.5289H320.499L319.419 90.4496H318.795L317.578 87.5897H317.548L317.624 90.5104L316.711 90.5408L316.604 86.0685L316.62 86.0533Z" fill="black"/>
</g>
<defs>
<clipPath id="clip0_5204_35">
<rect width="363" height="142.809" fill="white"/>
</clipPath>
</defs>
</svg>
